<?xml version="1.0" encoding="utf-8"?>
<svg version="1.1" xmlns="http://www.w3.org/2000/svg" xmlns:xlink="http://www.w3.org/1999/xlink" x="0px" y="0px" viewBox="0 0 64.1 22.5" style="enable-background:new 0 0 64.1 22.5;" xml:space="preserve" fill="currentColor">
<g>
	<path d="M11.5,11c0,3.1-2.4,5.6-5.2,5.6c-1.5,0-2.4-0.7-2.8-1.6v4.9L0,22.4V5.6h3.4v0.6c0.8-0.5,1.8-0.8,2.8-0.8C9.1,5.4,11.5,7.9,11.5,11z M7.8,11c0-1.3-1-2.4-2.3-2.4c-0.8,0-1.6,0.5-2,1.3v2.3c0.4,0.8,1.2,1.3,2,1.3C6.8,13.5,7.8,12.4,7.8,11z"/>
	<path d="M12.6,2.9c0-1,0.9-1.8,2.1-1.8s2.1,0.8,2.1,1.8s-0.9,1.8-2.1,1.8S12.6,3.9,12.6,2.9z M16.4,16.4h-3.5V5.6h3.5V16.4z"/>
	<path d="M21.5,11c0,1.2,0.9,2.2,2,2.2c0.6,0,1.2-0.3,1.6-0.9l3.1,1.8c-1.1,1.6-2.8,2.5-4.7,2.5c-3.1,0-5.6-2.5-5.6-5.6s2.5-5.6,5.6-5.6c1.9,0,3.6,1,4.7,2.5l-3.1,1.8c-0.4-0.6-1-0.9-1.6-0.9C22.3,8.8,21.5,9.8,21.5,11z"/>
	<path d="M40.6,5.7l-4.5,5.2l4.5,5.5H36l-3-3.9v3.9h-3.5V2.5L33,0v9.2l3-3.6L40.6,5.7L40.6,5.7z"/>
	<path d="M45.8,14.7c0,1.2-1,2.2-2.2,2.2s-2.2-1-2.2-2.2s1-2.2,2.2-2.2S45.8,13.4,45.8,14.7z"/>
	<path d="M55.3,5.7h3.5v10.7h-3.5v-0.6c-0.8,0.5-1.8,0.8-2.7,0.8c-2.9,0-5.3-2.5-5.3-5.6s2.4-5.6,5.3-5.6c1,0,1.9,0.3,2.7,0.8V5.7zM55.2,9.9c-0.4-0.8-1.2-1.3-2.1-1.3c-1.3,0-2.3,1.1-2.3,2.4s1.1,2.4,2.3,2.4c0.9,0,1.6-0.5,2.1-1.3V9.9z"/>
	<path d="M60.7,2.5L64.1,0v16.4h-3.4C60.7,16.4,60.7,2.5,60.7,2.5z"/>
</g>
</svg>
