<?xml version="1.0" encoding="utf-8"?>
<!-- Generator: Adobe Illustrator 27.0.0, SVG Export Plug-In . SVG Version: 6.00 Build 0)  -->
<svg version="1.1" id="Layer_1" xmlns="http://www.w3.org/2000/svg" xmlns:xlink="http://www.w3.org/1999/xlink" x="0px" y="0px"
	 viewBox="0 0 140.9 140.9" style="enable-background:new 0 0 140.9 140.9;" xml:space="preserve">
<style type="text/css">
	.st0{fill:#FFFFFF;}
</style>
<g>
	<path class="st0" d="M18.2,140.8H2.8V33.7h15.4v48.4V140.8z"/>
	<path class="st0" d="M40.8,33.7h41.6c39.6,0,57,28.3,57,53.6c0,27.5-21.5,53.6-56.8,53.6H40.8C40.8,140.9,40.8,33.7,40.8,33.7z
		 M56.2,127h24.5c34.9,0,42.9-26.5,42.9-39.7c0-21.5-13.7-39.7-43.7-39.7H56.2L56.2,127L56.2,127z"/>
	<path class="st0" d="M20.6,11.4c0,5.5-4.5,10.1-10.1,10.1S0.4,16.9,0.4,11.4c0-5.6,4.5-10.1,10.1-10.1C16.1,1.3,20.6,5.9,20.6,11.4
		z"/>
</g>
</svg>
